{
    "asset" : {
        "generator" : "Khronos glTF Blender I/O v3.2.43",
        "version" : "2.0"
    },
    "scene" : 0,
    "scenes" : [
        {
            "name" : "Scene",
            "nodes" : [
                0
            ]
        }
    ],
    "nodes" : [
        {
            "mesh" : 0,
            "name" : "ZBrush_defualt_group",
            "rotation" : [
                0.7071068286895752,
                0,
                0,
                0.7071067094802856
            ],
            "scale" : [
                0.009999999776482582,
                0.009999999776482582,
                0.009999999776482582
            ]
        }
    ],
    "materials" : [
        {
            "doubleSided" : true,
            "name" : "blinn1",
            "pbrMetallicRoughness" : {
                "baseColorFactor" : [
                    0.9049999713897705,
                    0.7315924167633057,
                    0.6905149817466736,
                    1
                ],
                "metallicFactor" : 0,
                "roughnessFactor" : 0.7487671971321106
            }
        }
    ],
    "meshes" : [
        {
            "name" : "Mesh.002",
            "primitives" : [
                {
                    "attributes" : {
                        "POSITION" : 0,
                        "NORMAL" : 1,
                        "TEXCOORD_0" : 2
                    },
                    "indices" : 3,
                    "material" : 0
                }
            ]
        }
    ],
    "accessors" : [
        {
            "bufferView" : 0,
            "componentType" : 5126,
            "count" : 4005,
            "max" : [
                49.0572624206543,
                16.286989212036133,
                0.08636331558227539
            ],
            "min" : [
                -49.0572624206543,
                -17.827417373657227,
                -180.14634704589844
            ],
            "type" : "VEC3"
        },
        {
            "bufferView" : 1,
            "componentType" : 5126,
            "count" : 4005,
            "type" : "VEC3"
        },
        {
            "bufferView" : 2,
            "componentType" : 5126,
            "count" : 4005,
            "type" : "VEC2"
        },
        {
            "bufferView" : 3,
            "componentType" : 5123,
            "count" : 20868,
            "type" : "SCALAR"
        }
    ],
    "bufferViews" : [
        {
            "buffer" : 0,
            "byteLength" : 48060,
            "byteOffset" : 0
        },
        {
            "buffer" : 0,
            "byteLength" : 48060,
            "byteOffset" : 48060
        },
        {
            "buffer" : 0,
            "byteLength" : 32040,
            "byteOffset" : 96120
        },
        {
            "buffer" : 0,
            "byteLength" : 41736,
            "byteOffset" : 128160
        }
    ],
    "buffers" : [
        {
            "byteLength" : 169896,
            "uri" : "data:application/octet-stream;base64,"
        }
    ]
}
